<svg id="圖層_1" data-name="圖層 1" xmlns="http://www.w3.org/2000/svg" viewBox="0 0 40 40"><defs><style>.cls-1{opacity:0.8;}.cls-2{fill:#3c3d68;}</style></defs><title>ic_form</title><g class="cls-1"><path class="cls-2" d="M34.25,15.21a2.28,2.28,0,0,0-3.21,0c-.27.28-2,2-2.28,2.28v-6a2.25,2.25,0,0,0-.66-1.6L26,7.75a2.26,2.26,0,0,0-1.61-.67h-13A2.27,2.27,0,0,0,9.08,9.35v21.3a2.27,2.27,0,0,0,2.27,2.27H26.49a2.27,2.27,0,0,0,2.27-2.27V23.92l5.49-5.5A2.26,2.26,0,0,0,34.25,15.21Zm-10-6.61a.83.83,0,0,1,.67.22L27,11a.82.82,0,0,1,.22.66h-3Zm3,22a.76.76,0,0,1-.76.75H11.35a.76.76,0,0,1-.75-.75V9.35a.76.76,0,0,1,.75-.75H22.71v3.78a.76.76,0,0,0,.75.76h3.79V19L25,21.24,24,22.31a.8.8,0,0,0-.19.3l-1.07,3.21a.77.77,0,0,0,1,1l3.21-1.07a.8.8,0,0,0,.3-.19l.09-.09v5.22Zm-1.7-7.8,1.07,1.07-.41.41-1.6.53.53-1.6Zm2.14,0-1.07-1.07c.57-.57,3.1-3.11,3.64-3.64l1.07,1.07Zm5.49-5.5-.78.78-1.07-1.07.78-.78a.77.77,0,0,1,1.07,0A.75.75,0,0,1,33.18,17.35Z"/><path class="cls-2" d="M23.46,14.65H12.87a.76.76,0,0,0-.76.76.75.75,0,0,0,.76.75H23.46a.75.75,0,0,0,.76-.75A.76.76,0,0,0,23.46,14.65Z"/><path class="cls-2" d="M20.44,17.68H12.87a.76.76,0,1,0,0,1.51h7.57a.76.76,0,0,0,0-1.51Z"/><path class="cls-2" d="M20.44,20.71H12.87a.76.76,0,1,0,0,1.51h7.57a.76.76,0,0,0,0-1.51Z"/><path class="cls-2" d="M20.44,23.73H12.87a.76.76,0,1,0,0,1.52h7.57a.76.76,0,0,0,0-1.52Z"/><path class="cls-2" d="M23.46,28.38H18.92a.76.76,0,0,0,0,1.51h4.54a.76.76,0,1,0,0-1.51Z"/></g></svg>